<svg width="60" height="60" viewBox="0 0 60 60" fill="none" xmlns="http://www.w3.org/2000/svg">
<path d="M14.8768 9.01787C16.3759 7.51868 15.2515 3.02112 12.7209 3.02112C10.1903 3.02112 10.3792 6.01949 11.8784 6.01949C13.3776 6.01949 13.3776 9.01787 13.3776 10.5171C13.3776 12.0162 14.8768 9.01787 14.8768 9.01787ZM8.60565 11.5965C10.1048 10.0973 8.98044 5.59972 6.44981 5.59972C3.91918 5.59972 4.10808 8.5981 5.60727 8.5981C7.10646 8.5981 7.10646 11.5965 7.10646 13.0957C7.10646 14.5949 8.60565 11.5965 8.60565 11.5965Z" fill="#AA8DD8"/>
<path d="M48.1468 52.2785C48.4301 53.4898 49.9863 55.6966 51.1931 55.4133C52.4015 55.1284 52.8077 52.4584 52.5244 51.25C52.241 50.0387 51.0282 49.2906 49.8199 49.5754C48.613 49.8603 47.8619 51.0701 48.1468 52.2785V52.2785ZM40.0002 53.2514C40.0047 54.4958 41.0211 56.9964 42.2624 56.9919C43.5038 56.9859 44.5022 54.4778 44.4977 53.2349C44.4932 51.9921 43.4828 50.9907 42.2415 50.9937C41.0001 50.9996 39.9957 52.0086 40.0002 53.2514V53.2514ZM32.0979 49.5844C31.6092 50.7298 31.5507 53.4268 32.6916 53.9171C33.8355 54.4028 35.7455 52.4973 36.2342 51.3535C36.7214 50.2111 36.1922 48.8903 35.0513 48.4001C33.909 47.9128 32.5882 48.4405 32.0979 49.5844V49.5844ZM24.5555 33.0334C23.3382 33.2912 21.0954 34.7919 21.3488 36.0063C21.6081 37.2206 24.2647 37.6914 25.482 37.435C26.6979 37.1786 27.4745 35.9853 27.2211 34.7709C26.9632 33.5566 25.7744 32.777 24.5555 33.0334ZM21.5017 25.5374C20.2843 25.7953 18.0416 27.296 18.2949 28.5103C18.5543 29.7247 21.2108 30.1954 22.4282 29.939C23.644 29.6827 24.4206 28.4893 24.1672 27.275C23.9094 26.0606 22.719 25.2811 21.5017 25.5374V25.5374Z" fill="#744EAA"/>
<path d="M44.6043 53.9935C48.8485 53.9935 51.9893 52.6787 52.499 52.4539C55.9036 50.9397 57.4358 46.9533 55.9231 43.5502C54.4254 40.177 50.5021 38.6403 47.1199 40.0811C46.9205 40.156 44.4319 41.054 42.1081 39.9731C39.3331 38.6823 37.618 35.0123 36.6691 32.1638C36.4532 31.5192 36.0919 30.2539 35.6406 28.6917C32.8431 18.9905 31.3949 16.271 29.6693 13.9697C24.1059 6.54722 15.2891 6.03 10.955 6.89953C7.30145 7.62963 4.93124 11.1842 5.66284 14.8377C6.39444 18.4928 9.95052 20.8645 13.6025 20.1299C13.8454 20.0909 16.9068 19.6711 18.7358 21.8824C19.6997 23.8119 21.8541 29.5703 22.6786 32.4277C23.1973 34.2252 23.6216 35.6824 23.869 36.426C26.527 44.3972 30.8642 49.7583 36.7665 52.3609C39.543 53.5873 42.2445 53.9935 44.6043 53.9935Z" fill="#9266CC"/>
<path d="M13.7778 12.0162C14.6057 12.0162 15.2769 11.345 15.2769 10.5171C15.2769 9.68908 14.6057 9.01787 13.7778 9.01787C12.9498 9.01787 12.2786 9.68908 12.2786 10.5171C12.2786 11.345 12.9498 12.0162 13.7778 12.0162Z" fill="#202024"/>
<path d="M50.1195 52.4404C49.9861 52.4404 49.8497 52.4224 49.7162 52.3864C48.9187 52.1645 48.4509 51.3385 48.6728 50.5409C49.8077 46.4601 47.5184 43.7316 47.4959 43.7046C46.9577 43.0764 47.0282 42.1289 47.6564 41.5907C48.283 41.0525 49.232 41.123 49.7702 41.7511C49.9081 41.9116 53.1194 45.739 51.5617 51.3415C51.3788 52.0056 50.7747 52.4404 50.1195 52.4404V52.4404ZM39.3269 51.5963C38.9596 51.5963 38.5923 51.4629 38.3014 51.1915C37.6973 50.6248 37.6658 49.6759 38.231 49.0717C40.4573 46.6925 40.4093 42.7856 40.4078 42.7451C40.3838 41.9176 41.0359 41.2279 41.865 41.2039C42.6776 41.1964 43.3837 41.8321 43.4062 42.6612C43.4122 42.8695 43.5156 47.8139 40.4213 51.1226C40.1259 51.4374 39.7257 51.5963 39.3269 51.5963V51.5963ZM26.5208 38.5594C25.8012 38.5594 25.1655 38.0392 25.0441 37.3046C24.9092 36.489 25.4609 35.7154 26.2779 35.582C30.8864 34.8174 33.4351 32.0184 33.4605 31.9899C34.0078 31.3753 34.9567 31.3168 35.5729 31.864C36.1906 32.4112 36.252 33.3527 35.7093 33.9719C35.5789 34.1203 32.4771 37.5924 26.7682 38.5384C26.6842 38.5534 26.6018 38.5594 26.5208 38.5594V38.5594ZM30.8999 45.8409C30.2628 45.8409 29.6721 45.4332 29.4697 44.7945C29.2208 44.0059 29.6586 43.1619 30.4472 42.913C34.4845 41.6342 36.264 38.6703 36.282 38.6403C36.7018 37.9252 37.6193 37.6853 38.3329 38.1051C39.048 38.5234 39.2864 39.4439 38.8681 40.156C38.7737 40.3179 36.4769 44.1483 31.3527 45.769C31.2013 45.8184 31.0484 45.8409 30.8999 45.8409V45.8409ZM23.9752 29.8446C23.2316 29.8446 22.5854 29.2914 22.4895 28.5328C22.386 27.7112 22.9677 26.9617 23.7893 26.8567C27.8206 26.347 30.771 23.9018 30.7995 23.8763C31.4321 23.3456 32.3781 23.4221 32.9103 24.0547C33.4441 24.6859 33.3676 25.6289 32.7379 26.1641C32.5925 26.2885 29.1099 29.2059 24.1656 29.8311C24.1011 29.8401 24.0381 29.8446 23.9752 29.8446V29.8446ZM21.2452 22.698C20.608 22.698 20.0173 22.2887 19.8149 21.647C19.5676 20.857 20.0053 20.0159 20.7954 19.767C25.4879 18.2933 27.1714 15.7312 27.2404 15.6233C27.6827 14.9307 28.6062 14.7163 29.3018 15.1555C29.9989 15.5933 30.2178 16.5033 29.7875 17.2034C29.6976 17.3489 27.5298 20.7955 21.6934 22.629C21.545 22.6755 21.3936 22.698 21.2452 22.698V22.698Z" fill="#744EAA"/>
</svg>
