<svg width="60" height="60" viewBox="0 0 60 60" fill="none" xmlns="http://www.w3.org/2000/svg">
<path d="M46.4912 20.8914C46.4912 30.5447 38.9952 32.0439 38.9952 41.0405C38.9952 45.685 34.3133 46.0763 30.7497 46.0763C27.6719 46.0763 20.876 44.9084 20.876 41.0375C20.876 32.0454 13.509 30.5462 13.509 20.8914C13.509 11.8498 21.4322 4.52031 30.1245 4.52031C38.8198 4.52031 46.4912 11.8498 46.4912 20.8914Z" fill="#FFD983"/>
<path d="M36.2472 53.0341C36.2472 54.2754 32.898 56.782 30 56.782C27.1021 56.782 23.7529 54.2754 23.7529 53.0341C23.7529 51.7927 27.1006 52.2845 30 52.2845C32.898 52.2845 36.2472 51.7927 36.2472 53.0341Z" fill="#CCD6DD"/>
<path d="M37.0569 19.7416C36.4707 19.1554 35.5232 19.1554 34.937 19.7416L30.0002 24.6784L25.0634 19.7416C24.4772 19.1554 23.5297 19.1554 22.9435 19.7416C22.3574 20.3278 22.3574 21.2752 22.9435 21.8614L28.501 27.4189V43.2893C28.501 44.1184 29.1727 44.7885 30.0002 44.7885C30.8278 44.7885 31.4994 44.1184 31.4994 43.2893V27.4189L37.0569 21.8614C37.6431 21.2752 37.6431 20.3278 37.0569 19.7416V19.7416Z" fill="#FFCC4D"/>
<path d="M38.9951 50.7853C38.9951 52.4404 37.6519 53.7836 35.9968 53.7836H24.0033C22.3482 53.7836 21.0049 52.4404 21.0049 50.7853V41.7901H38.9951V50.7853Z" fill="#99AAB5"/>
<path d="M21.0035 52.2844C20.2839 52.2844 19.6483 51.7642 19.5268 51.0311C19.3904 50.2156 19.9421 49.442 20.7592 49.307L38.7494 46.3087C39.565 46.1618 40.3386 46.7239 40.4735 47.541C40.6099 48.3566 40.0582 49.1301 39.2411 49.2651L21.2509 52.2634C21.1684 52.2784 21.0845 52.2844 21.0035 52.2844V52.2844ZM21.0035 46.2877C20.2839 46.2877 19.6483 45.7675 19.5268 45.0344C19.3904 44.2188 19.9421 43.4452 20.7592 43.3103L38.7494 40.3119C39.565 40.1665 40.3386 40.7272 40.4735 41.5443C40.6099 42.3598 40.0582 43.1334 39.2411 43.2683L21.2509 46.2667C21.1684 46.2817 21.0845 46.2877 21.0035 46.2877V46.2877Z" fill="#CCD6DD"/>
</svg>
