<svg width="60" height="60" viewBox="0 0 60 60" fill="none" xmlns="http://www.w3.org/2000/svg">
<path d="M56.9919 22.3232C56.9919 16.5273 52.2934 11.8288 46.4975 11.8288C44.748 11.8288 43.1019 12.2636 41.6522 13.0192C38.5308 8.78099 33.5191 6.01949 27.8521 6.01949C20.1583 6.01949 13.6473 11.0867 11.4765 18.067C7.49165 18.992 4.52026 22.5555 4.52026 26.8207C4.52026 31.2868 7.7795 34.9838 12.0477 35.6854C12.3715 41.6057 17.2604 46.3102 23.2601 46.3102C26.5224 46.3102 29.4518 44.9114 31.5057 42.6926C33.5595 44.9114 36.4875 46.3102 39.7512 46.3102C45.9623 46.3102 50.9951 41.2774 50.9951 35.0663C50.9951 34.0018 50.8377 32.9764 50.5618 32.0004C54.3383 30.4128 56.9919 26.6783 56.9919 22.3232Z" fill="#85C8F8"/>
<path d="M10.5171 55.3053C13.001 55.3053 15.0147 53.2917 15.0147 50.8077C15.0147 48.3238 13.001 46.3102 10.5171 46.3102C8.03316 46.3102 6.01953 48.3238 6.01953 50.8077C6.01953 53.2917 8.03316 55.3053 10.5171 55.3053Z" fill="#85C8F8"/>
</svg>
